Coordinates
version=1
nRows=12
nColumns=33
inDegrees=yes

Units are S.I. units (second, meters, Newtons, ...)
Angles are in degrees.

endheader
time	ground_thorax_rot_x	ground_thorax_rot_y	ground_thorax_rot_z	ground_thorax_tx	ground_thorax_ty	ground_thorax_tz	clav_prot_r	clav_elev_r	scapula_abduction_r	scapula_elevation_r	scapula_upward_rot_r	scapula_winging_r	shoulder_elv_r	plane_of_elev_r	axial_rot_r	elbow_flexion_r	pro_sup_r	wrist_flex_r	wrist_dev_r	clav_prot_l	clav_elev_l	scapula_abduction_l	scapula_elevation_l	scapula_upward_rot_l	scapula_winging_l	shoulder_elv_l	plane_of_elev_l	axial_rot_l	elbow_flexion_l	pro_sup_l	wrist_flex_l	wrist_dev_l	
3.2900	-3.718467	2.091748	9.982121	-0.102013	1.026119	0.008520	17.002411	-8.747305	44.996293	-10.518686	26.546535	-15.329842	-4.836038	-51.850952	117.834875	-35.856679	-137.748784	1.164473	0.281170	26.235742	-11.657756	-39.562300	-4.135307	-22.268145	13.731180	58.601486	2.351281	14.868985	12.370787	26.755388	13.735308	-7.707149	
3.3000	-3.838797	2.039929	9.988904	-0.101953	1.026473	0.008456	17.002412	-9.067448	44.993107	-10.790580	26.566178	-15.145704	-5.050558	-51.998735	117.370355	-35.585727	-138.856530	2.335954	-0.308901	26.016867	-11.649973	-39.186809	-4.255320	-22.489666	13.489847	58.936883	2.256706	14.261852	12.454486	26.464101	13.363406	-7.964546	
3.3100	-3.883386	1.993632	10.001622	-0.101971	1.026603	0.008418	17.004109	-9.216709	44.988358	-10.915422	26.566576	-15.058690	-5.189008	-52.126661	117.145726	-35.459277	-139.650085	3.002225	-0.660473	25.864826	-11.611019	-38.932337	-4.355691	-22.619080	13.336340	59.103942	2.153086	13.907163	12.591553	26.203468	13.179904	-8.146068	
3.3200	-3.924005	1.946054	10.030897	-0.102042	1.026682	0.008382	17.009670	-9.367126	44.980588	-11.037517	26.553775	-14.973167	-5.363272	-52.282609	116.930274	-35.345298	-140.748208	3.764280	-1.081324	25.663055	-11.565846	-38.597024	-4.464638	-22.750356	13.135583	59.262830	2.005323	13.482908	12.796738	25.800559	13.006573	-8.380622	
3.3300	-3.930440	1.905114	10.073039	-0.102197	1.026629	0.008355	17.022656	-9.451605	44.968022	-11.097231	26.512025	-14.927320	-5.526396	-52.449437	116.812658	-35.316753	-141.919063	4.377362	-1.447642	25.451990	-11.507455	-38.250974	-4.568211	-22.845013	12.934066	59.351250	1.824341	13.126902	13.077738	25.322323	12.915655	-8.616567	
3.3400	-3.905051	1.874183	10.123543	-0.102435	1.026464	0.008346	17.050075	-9.486740	44.945149	-11.102622	26.418664	-14.912836	-5.677998	-52.621913	116.766727	-35.406061	-143.137016	4.851834	-1.760175	25.227251	-11.444374	-37.885043	-4.663670	-22.912084	12.723706	59.386296	1.612641	12.857304	13.446474	24.796565	12.890369	-8.847802	
3.3500	-3.857187	1.854862	10.183898	-0.102748	1.026211	0.008349	17.093300	-9.497777	44.905192	-11.071982	26.262557	-14.913710	-5.822664	-52.803144	116.761184	-35.634007	-144.288814	5.196511	-2.003547	24.992632	-11.379415	-37.502616	-4.762054	-22.981292	12.504145	59.391146	1.387252	12.703797	13.920559	24.309207	12.895902	-9.063487	
3.3600	-3.790773	1.849427	10.251315	-0.103113	1.025903	0.008375	17.148528	-9.501169	44.830787	-11.015237	26.028183	-14.914223	-5.965963	-52.982705	116.770211	-36.016974	-145.384106	5.434723	-2.183271	24.740910	-11.324924	-37.089912	-4.855275	-23.056572	12.264066	59.385416	1.150775	12.665648	14.491108	23.883489	12.918731	-9.263747	
3.3700	-3.728343	1.861456	10.324358	-0.103516	1.025607	0.008411	17.201140	-9.544654	44.701997	-10.974341	25.723250	-14.876015	-6.127318	-53.166371	116.736958	-36.526572	-146.420702	5.665014	-2.329447	24.463206	-11.287350	-36.628917	-4.953471	-23.171127	11.989346	59.417630	0.921320	12.702995	15.146034	23.585699	12.904600	-9.462387	
3.3800	-3.669371	1.890119	10.398785	-0.103934	1.025330	0.008468	17.237449	-9.623972	44.500495	-10.946797	25.351595	-14.791367	-6.313969	-53.348023	116.671078	-37.168284	-147.429057	5.889585	-2.443365	24.158427	-11.265032	-36.118545	-5.055995	-23.320268	11.680844	59.486142	0.698351	12.809227	15.888586	23.416627	12.859608	-9.670762	
3.3900	-3.618670	1.930278	10.472604	-0.104347	1.025114	0.008527	17.243693	-9.763790	44.211185	-10.956128	24.924120	-14.636385	-6.523021	-53.547085	116.599550	-37.926365	-148.572691	6.106780	-2.526069	23.805866	-11.262552	-35.524310	-5.158232	-23.500951	11.317387	59.605644	0.474953	12.939520	16.704453	23.398270	12.797961	-9.911147	
3.4000	-3.569785	1.979636	10.543672	-0.104751	1.024937	0.008600	17.215683	-9.933284	43.838189	-10.979463	24.453549	-14.428305	-6.759188	-53.753000	116.537309	-38.783939	-149.894202	6.334269	-2.604275	23.412096	-11.270237	-34.860019	-5.258586	-23.692111	10.910918	59.749289	0.243220	13.080864	17.587345	23.460637	12.738078	-10.195398	
